<?xml version="1.0" encoding="UTF-8" standalone="no"?>
<!DOCTYPE svg PUBLIC "-//W3C//DTD SVG 1.1//EN" "http://www.w3.org/Graphics/SVG/1.1/DTD/svg11.dtd">
<!-- Created with Vectornator (http://vectornator.io/) -->
<svg height="100%" stroke-miterlimit="10" style="fill-rule:nonzero;clip-rule:evenodd;stroke-linecap:round;stroke-linejoin:round;" version="1.1" viewBox="0 0 1638.65 359.383" width="100%" xml:space="preserve" xmlns="http://www.w3.org/2000/svg" xmlns:vectornator="http://vectornator.io" xmlns:xlink="http://www.w3.org/1999/xlink">
<defs/>
<g id="Слой-5" vectornator:layerName="Слой 5">
<g opacity="1" vectornator:layerName="g"/>
<g fill="#27427c" opacity="1" stroke="none">
<path d="M31.05 78L200.7 78L200.7 122.37L87.6 122.37L87.6 155.14L140.09 155.14C164.643 155.14 183.493 160.36 196.64 170.8C209.787 181.24 216.36 196.223 216.36 215.75C216.36 236.243 209.013 252.242 194.32 263.745C179.627 275.248 159.037 281 132.55 281L31.05 281L31.05 78ZM128.78 239.82C138.447 239.82 145.793 237.887 150.82 234.02C155.847 230.153 158.36 224.643 158.36 217.49C158.36 203.183 148.5 196.03 128.78 196.03L87.6 196.03L87.6 239.82L128.78 239.82Z"/>
<path d="M225.94 78L395.59 78L395.59 122.37L282.49 122.37L282.49 155.14L334.98 155.14C359.533 155.14 378.383 160.36 391.53 170.8C404.677 181.24 411.25 196.223 411.25 215.75C411.25 236.243 403.903 252.242 389.21 263.745C374.517 275.248 353.927 281 327.44 281L225.94 281L225.94 78ZM323.67 239.82C333.337 239.82 340.683 237.887 345.71 234.02C350.737 230.153 353.25 224.643 353.25 217.49C353.25 203.183 343.39 196.03 323.67 196.03L282.49 196.03L282.49 239.82L323.67 239.82Z"/>
<path d="M502.9 203.28L476.8 203.28L476.8 281L419.67 281L419.67 78L476.8 78L476.8 156.88L504.35 156.88L552.78 78L613.1 78L549.59 176.02L613.68 281L549.01 281L502.9 203.28Z"/>
</g>
<g fill="#53a4c6" opacity="1" stroke="none">
<path d="M615.464 211.4L615.464 193.42L691.444 193.42L691.444 211.4L615.464 211.4Z"/>
<path d="M711.064 281L711.064 78L881.874 78L881.874 281L860.704 281L860.704 90.76L866.214 96.56L726.724 96.56L732.234 90.76L732.234 281L711.064 281Z"/>
<path d="M918.314 281L918.314 78L994.294 78C1011.5 78 1026.29 80.755 1038.66 86.265C1051.04 91.775 1060.56 99.7017 1067.23 110.045C1073.9 120.388 1077.23 132.907 1077.23 147.6C1077.23 161.907 1073.9 174.232 1067.23 184.575C1060.56 194.918 1051.04 202.893 1038.66 208.5C1026.29 214.107 1011.5 216.91 994.294 216.91L930.204 216.91L939.774 206.76L939.774 281L918.314 281ZM939.774 208.5L930.204 198.06L993.714 198.06C1014.01 198.06 1029.43 193.662 1039.97 184.865C1050.51 176.068 1055.77 163.647 1055.77 147.6C1055.77 131.36 1050.51 118.793 1039.97 109.9C1029.43 101.007 1014.01 96.56 993.714 96.56L930.204 96.56L939.774 86.41L939.774 208.5Z"/>
</g>
<path d="M1389.62 281L1389.62 78L1407.31 78L1500.11 236.34L1490.83 236.34L1582.76 78L1600.45 78L1600.45 281L1579.86 281L1579.86 110.19L1584.79 110.19L1500.11 255.19L1489.96 255.19L1404.7 110.19L1410.21 110.19L1410.21 281L1389.62 281Z" fill="#53a4c6" opacity="1" stroke="none"/>
<g opacity="1" vectornator:layerName="g">
<path d="M1210.66 80.3545C1202.79 80.3545 1196.41 86.3382 1196.41 93.7195L1196.41 142.808L1143.28 142.808C1135.42 142.808 1129.04 148.792 1129.04 156.173L1129.04 196.38C1129.04 203.761 1135.42 209.745 1143.28 209.745L1196.41 209.745L1196.41 260.281C1196.41 267.661 1202.79 273.646 1210.66 273.646L1253.49 273.646C1261.36 273.646 1267.73 267.661 1267.73 260.281L1267.73 209.745L1320.83 209.745C1328.7 209.745 1335.08 203.761 1335.08 196.38L1335.08 156.173C1335.08 148.792 1328.7 142.808 1320.83 142.808L1267.73 142.808L1267.73 93.7195C1267.73 86.3382 1261.36 80.3545 1253.49 80.3545L1210.66 80.3545Z" fill="#53a5c7" fill-rule="nonzero" opacity="1" stroke="none" vectornator:layerName="path"/>
<path d="M1218.97 152.198C1209.45 156.838 1202.85 166.247 1202.85 177.231C1202.85 189.649 1211.25 200.069 1222.83 203.81L1222.83 273.646L1241.29 273.646L1241.29 203.81C1252.86 200.069 1261.26 189.649 1261.26 177.231C1261.26 166.48 1254.93 157.255 1245.74 152.513L1245.74 179.52L1245.68 179.52L1245.74 179.663L1232.36 186.387L1218.97 179.663L1219.03 179.52L1218.97 179.52L1218.97 152.198Z" fill="#ffffff" fill-rule="nonzero" opacity="1" stroke="none" vectornator:layerName="path"/>
<path d="M1232.06 205.975L1232.06 205.975C1233.71 205.975 1235.04 206.758 1235.04 207.723L1235.04 270.263C1235.04 271.229 1233.71 272.012 1232.06 272.012L1232.06 272.012C1230.41 272.012 1229.08 271.229 1229.08 270.263L1229.08 207.723C1229.08 206.758 1230.41 205.975 1232.06 205.975Z" fill="#ffffff" fill-rule="nonzero" opacity="1" stroke="#53a5c7" stroke-linecap="butt" stroke-linejoin="round" stroke-width="1" vectornator:layerName="path"/>
</g>
<path d="M1099.22 177C1099.22 103.635 1158.69 44.1603 1232.06 44.1603C1305.42 44.1603 1364.9 103.635 1364.9 177C1364.9 250.365 1305.42 309.84 1232.06 309.84C1158.69 309.84 1099.22 250.365 1099.22 177Z" fill="none" opacity="1" stroke="#53a5c7" stroke-linecap="butt" stroke-linejoin="round" stroke-width="15"/>
</g>
</svg>
