<?xml version="1.0" standalone="no"?>
<!DOCTYPE svg PUBLIC "-//W3C//DTD SVG 20010904//EN"
 "http://www.w3.org/TR/2001/REC-SVG-20010904/DTD/svg10.dtd">
<svg version="1.0" xmlns="http://www.w3.org/2000/svg"
 width="218.000000pt" height="217.000000pt" viewBox="0 0 218.000000 217.000000"
 preserveAspectRatio="xMidYMid meet">

<g transform="translate(0.000000,217.000000) scale(0.100000,-0.100000)"
fill="blue" stroke="none">
<path d="M783 2151 c-67 -42 -67 -43 -73 -376 l-5 -300 -305 -5 c-338 -6 -339
-6 -380 -73 -18 -30 -20 -52 -20 -300 0 -302 3 -319 69 -359 35 -22 44 -23
339 -26 l302 -3 0 -302 c0 -284 1 -304 20 -335 33 -54 74 -72 163 -72 l77 0 0
383 0 382 -36 20 c-54 29 -110 88 -140 147 -39 76 -45 190 -13 273 28 74 125
178 161 173 23 -3 23 -6 26 -159 l2 -156 61 -29 61 -29 57 31 56 31 5 154 c4
130 7 154 21 157 24 4 111 -79 144 -140 28 -49 30 -61 30 -153 0 -86 -3 -107
-25 -150 -28 -57 -103 -136 -149 -155 l-31 -12 0 -385 0 -385 90 4 c88 3 90 4
126 39 21 21 39 52 44 75 5 21 10 164 10 316 l0 277 298 3 c285 3 298 4 332
25 19 12 44 37 55 55 19 31 20 51 20 298 0 249 -1 267 -21 300 -11 19 -35 45
-54 57 -32 23 -38 23 -331 23 l-299 0 0 273 c0 149 -5 290 -10 311 -5 23 -23
54 -44 75 l-36 36 -283 3 c-266 2 -284 1 -314 -17z"/>
<path d="M1065 757 c-3 -6 -4 -179 -3 -382 3 -353 4 -370 22 -373 10 -2 22 2
27 10 13 19 11 715 -1 739 -12 21 -38 25 -45 6z"/>
</g>
</svg>
