<?xml version="1.0" standalone="no"?>
<!DOCTYPE svg PUBLIC "-//W3C//DTD SVG 20010904//EN"
 "http://www.w3.org/TR/2001/REC-SVG-20010904/DTD/svg10.dtd">
<svg version="1.0" xmlns="http://www.w3.org/2000/svg"
 width="512.000000pt" height="512.000000pt" viewBox="0 0 512.000000 512.000000"
 preserveAspectRatio="xMidYMid meet">

<g transform="translate(0.000000,512.000000) scale(0.100000,-0.100000)"
fill="#000000" stroke="none">
<path d="M2470 4435 l0 -685 -306 2 c-261 3 -308 5 -315 18 -4 8 -23 46 -41
84 -47 99 -158 211 -258 260 -104 50 -187 66 -361 66 -242 0 -364 -44 -499
-180 -54 -54 -84 -94 -108 -145 -18 -38 -37 -77 -41 -85 -7 -12 -42 -16 -187
-20 -174 -5 -180 -6 -227 -33 -56 -33 -99 -89 -116 -149 -9 -32 -11 -415 -9
-1543 l3 -1500 22 -40 c28 -52 78 -99 128 -122 32 -14 78 -19 230 -23 l190 -5
24 -45 c40 -74 155 -180 242 -223 104 -51 186 -67 354 -67 168 0 249 16 354
67 86 43 200 148 242 223 l24 45 1555 5 c1470 5 1557 6 1595 23 50 23 100 70
128 122 l22 40 3 1500 c2 1128 0 1511 -9 1543 -17 60 -60 116 -116 149 -48 28
-50 28 -258 33 l-210 5 -3 485 -2 485 -198 198 -197 197 -827 0 -828 0 0 -685z
m1732 368 l148 -148 0 -452 0 -453 -850 0 -850 0 0 600 0 600 702 0 703 0 147
-147z m-2817 -809 c166 -43 291 -183 315 -354 12 -85 13 -3014 0 -3098 -25
-176 -158 -321 -328 -357 -86 -19 -268 -19 -354 0 -172 36 -304 182 -329 362
-6 42 -8 673 -6 1593 3 1695 -3 1559 70 1673 59 91 143 153 250 182 74 20 305
20 382 -1z m-875 -1911 c0 -824 3 -1515 7 -1536 l6 -38 -151 3 c-142 3 -153 4
-174 26 l-23 23 -3 1467 c-1 807 0 1477 3 1490 3 12 14 31 25 42 18 18 34 20
165 20 l145 0 0 -1497z m4410 1477 c11 -11 22 -30 25 -42 3 -13 4 -683 3
-1490 l-3 -1467 -23 -23 -23 -23 -1516 -3 -1516 -2 7 46 c3 26 6 717 6 1535
l0 1489 1510 0 c1490 0 1510 0 1530 -20z"/>
<path d="M2820 4695 l0 -85 595 0 595 0 0 85 0 85 -595 0 -595 0 0 -85z"/>
<path d="M2820 4355 l0 -85 595 0 595 0 0 85 0 85 -595 0 -595 0 0 -85z"/>
<path d="M2820 4015 l0 -85 595 0 595 0 0 85 0 85 -595 0 -595 0 0 -85z"/>
<path d="M2472 3073 l3 -338 1023 -3 1022 -2 0 340 0 340 -1025 0 -1025 0 2
-337z m1878 -3 l0 -170 -850 0 -850 0 0 170 0 170 850 0 850 0 0 -170z"/>
<path d="M2750 2551 c-71 -23 -131 -74 -166 -141 -27 -51 -25 -162 3 -216 51
-97 122 -139 233 -139 84 1 119 14 175 70 56 56 69 91 70 175 0 111 -43 183
-138 231 -44 23 -137 33 -177 20z m121 -190 c37 -38 38 -79 3 -115 -36 -35
-77 -34 -115 3 -17 18 -29 40 -29 56 0 35 50 85 85 85 16 0 38 -12 56 -29z"/>
<path d="M3406 2540 c-96 -38 -159 -128 -160 -229 0 -73 18 -124 63 -174 158
-176 440 -68 441 169 0 180 -176 300 -344 234z m133 -165 c16 -8 31 -22 35
-30 33 -86 -56 -160 -126 -105 -60 46 -26 146 50 149 7 1 26 -6 41 -14z"/>
<path d="M4095 2544 c-168 -59 -220 -286 -97 -418 41 -44 118 -76 182 -76 102
0 210 74 241 166 17 51 16 140 -4 185 -52 123 -198 187 -322 143z m120 -164
c30 -11 54 -60 47 -96 -6 -32 -48 -64 -84 -64 -40 0 -78 40 -78 83 0 36 13 58
45 75 25 14 37 14 70 2z"/>
<path d="M2748 1866 c-106 -29 -188 -136 -188 -245 0 -138 115 -251 254 -251
145 0 255 109 256 250 0 166 -162 291 -322 246z m132 -194 c44 -55 7 -132 -65
-132 -87 0 -114 120 -34 154 40 17 75 10 99 -22z"/>
<path d="M3450 1871 c-47 -10 -110 -44 -136 -73 -117 -127 -75 -339 81 -409
45 -21 130 -24 189 -8 52 14 141 103 155 155 16 59 13 144 -8 189 -47 104
-172 169 -281 146z m108 -194 c15 -14 22 -32 22 -56 0 -97 -130 -112 -163 -19
-11 31 13 79 47 94 36 15 62 10 94 -19z"/>
<path d="M4127 1869 c-118 -28 -196 -123 -197 -239 0 -87 16 -127 74 -186 59
-58 99 -74 186 -74 138 1 244 112 243 255 0 67 -32 142 -75 181 -58 54 -158
81 -231 63z m87 -173 c35 -15 60 -62 49 -94 -32 -92 -163 -78 -163 18 0 42 29
76 78 89 1 1 18 -5 36 -13z"/>
<path d="M2702 1164 c-86 -43 -142 -132 -142 -225 0 -95 70 -199 159 -236 45
-20 134 -21 185 -4 92 31 166 139 166 241 0 64 -32 141 -76 182 -76 71 -198
89 -292 42z m173 -169 c71 -70 -24 -177 -109 -122 -32 21 -42 67 -22 105 18
34 28 40 74 41 22 1 41 -7 57 -24z"/>
<path d="M3395 1171 c-129 -58 -186 -220 -122 -346 14 -28 36 -60 49 -71 127
-117 339 -75 409 81 21 45 24 130 8 189 -14 52 -103 141 -155 155 -59 16 -144
13 -189 -8z m162 -173 c45 -42 23 -119 -39 -141 -32 -11 -79 14 -94 49 -34 82
68 153 133 92z"/>
<path d="M4091 1178 c-47 -13 -136 -105 -150 -154 -50 -179 66 -338 244 -337
100 1 177 48 222 138 64 126 7 288 -122 346 -44 20 -137 24 -194 7z m146 -180
c30 -34 34 -55 19 -92 -34 -82 -156 -56 -156 33 0 73 89 111 137 59z"/>
</g>
</svg>
