<?xml version="1.0" standalone="no"?>
<!DOCTYPE svg PUBLIC "-//W3C//DTD SVG 20010904//EN"
 "http://www.w3.org/TR/2001/REC-SVG-20010904/DTD/svg10.dtd">
<svg version="1.0" xmlns="http://www.w3.org/2000/svg"
 width="512.000000pt" height="512.000000pt" viewBox="0 0 512.000000 512.000000"
 preserveAspectRatio="xMidYMid meet">

<g transform="translate(0.000000,512.000000) scale(0.100000,-0.100000)"
fill="#000000" stroke="none">
<path d="M2294 4679 c-11 -6 -28 -23 -37 -39 -15 -25 -17 -78 -17 -519 l0
-491 960 0 960 0 0 219 c0 121 -4 230 -9 243 -5 13 -137 153 -292 311 l-284
288 -630 -1 c-401 -1 -638 -5 -651 -11z"/>
<path d="M630 4033 c-64 -23 -161 -122 -183 -187 -16 -45 -17 -178 -17 -1605
0 -1782 -10 -1612 95 -1716 96 -96 91 -95 542 -95 354 0 387 1 433 19 78 30
134 81 172 159 l33 67 0 1565 0 1565 -33 67 c-38 78 -94 129 -172 159 -47 18
-78 19 -438 18 -326 0 -394 -3 -432 -16z"/>
<path d="M1812 2188 l3 -1333 1315 0 1315 0 56 26 c69 33 127 89 160 155 l24
49 0 1105 0 1105 -23 43 c-35 66 -88 119 -150 149 l-57 28 -1323 3 -1322 2 2
-1332z m2312 663 c51 -48 40 -142 -20 -170 -18 -8 -308 -11 -1020 -11 l-996 0
-29 29 c-47 47 -37 129 19 164 25 15 108 16 1024 14 l996 -2 26 -24z m-1735
-511 c80 -23 132 -112 111 -190 -22 -82 -85 -126 -169 -118 -86 8 -141 70
-141 158 0 70 37 121 107 146 47 16 50 16 92 4z m786 -19 c94 -54 101 -200 12
-263 -36 -26 -116 -35 -157 -18 -67 28 -110 117 -91 188 12 44 65 99 107 112
37 11 90 4 129 -19z m756 -6 c68 -44 88 -151 41 -215 -33 -45 -81 -70 -132
-70 -116 0 -194 124 -142 226 25 48 40 62 89 80 47 17 97 10 144 -21z m-1542
-615 c80 -23 132 -112 111 -190 -22 -82 -85 -126 -169 -118 -86 8 -141 70
-141 158 0 70 37 121 107 146 47 16 50 16 92 4z m786 -19 c94 -54 101 -200 12
-263 -36 -26 -116 -35 -157 -18 -67 28 -110 117 -91 188 12 44 65 99 107 112
37 11 90 4 129 -19z m756 -6 c68 -44 88 -151 41 -215 -33 -45 -81 -70 -132
-70 -116 0 -194 124 -142 226 25 48 40 62 89 80 47 17 97 10 144 -21z"/>
</g>
</svg>
