<?xml version="1.0" encoding="utf-8"?>
<!-- Generator: Adobe Illustrator 16.0.0, SVG Export Plug-In . SVG Version: 6.00 Build 0)  -->
<!DOCTYPE svg PUBLIC "-//W3C//DTD SVG 1.1//EN" "http://www.w3.org/Graphics/SVG/1.1/DTD/svg11.dtd">
<svg version="1.1" id="Ebene_1" xmlns="http://www.w3.org/2000/svg" xmlns:xlink="http://www.w3.org/1999/xlink" x="0px" y="0px"
	 width="317.61px" height="56.693px" viewBox="0 0 317.61 56.693" enable-background="new 0 0 317.61 56.693" xml:space="preserve">
<g>
	<path fill-rule="evenodd" clip-rule="evenodd" fill="#0060AF" d="M58.042,0.431h55.115v19.401H89.369
		c0.078-0.308,0.12-0.63,0.12-0.962c0-2.148-1.741-3.889-3.889-3.889s-3.89,1.74-3.89,3.889s1.742,3.89,3.89,3.89h27.558v33.707
		H58.042V37.06h23.788c-0.079,0.309-0.12,0.63-0.12,0.962c0,2.148,1.742,3.889,3.89,3.889s3.889-1.74,3.889-3.889
		c0-2.147-1.741-3.888-3.889-3.888l-27.558-0.002V0.431L58.042,0.431z"/>
	<polygon fill-rule="evenodd" clip-rule="evenodd" fill="#0060AF" points="0,0.431 26.01,0.431 26.01,22.76 29.105,22.76 
		29.105,0.431 55.115,0.431 55.115,56.467 29.105,56.467 29.105,34.151 26.01,34.151 26.01,56.467 0,56.467 0,0.431 	"/>
	<polygon fill-rule="evenodd" clip-rule="evenodd" fill="#0060AF" points="141.935,25.517 141.935,14.545 133.766,14.545 
		133.766,25.517 129.629,25.517 129.629,0.419 133.766,0.419 133.766,10.302 141.935,10.302 141.935,0.419 146.072,0.419 
		146.072,25.517 141.935,25.517 	"/>
	<path fill-rule="evenodd" clip-rule="evenodd" fill="#0060AF" d="M163.98,25.517l-1.785-5.682h-8.238l-1.684,5.682h-4.417
		l7.991-25.098h4.419l8.06,24.556l-0.173,0.542H163.98L163.98,25.517L163.98,25.517z M160.861,15.596l-2.803-9.325h-0.069
		l-2.735,9.325H160.861L160.861,15.596z"/>
	<path fill-rule="evenodd" clip-rule="evenodd" fill="#0060AF" d="M184.276,25.517l-1.784-5.682h-8.236l-1.684,5.682h-4.419
		l7.992-25.098h4.419l8.236,25.098H184.276L184.276,25.517L184.276,25.517z M181.159,15.596l-2.805-9.325h-0.068l-2.735,9.325
		H181.159L181.159,15.596z"/>
	<path fill-rule="evenodd" clip-rule="evenodd" fill="#0060AF" d="M188.275,12.93c0-4.487,1.265-8.061,3.786-10.515
		c1.684-1.684,3.681-2.417,6.415-2.417c4.908,0,7.888,2.522,8.764,7.361l-4.137,0.945c-0.595-2.522-2.278-3.961-4.627-3.961
		c-3.786,0-5.92,3.017-5.92,8.343c0,5.607,2.172,8.938,5.884,8.938c1.614,0,3.505-0.839,4.875-2.14v-3.187h-4.77v-4.243h8.938v9.989
		c-1.89,2.279-5.608,3.893-8.795,3.893C192.342,25.937,188.275,20.854,188.275,12.93L188.275,12.93z"/>
	<polygon fill-rule="evenodd" clip-rule="evenodd" fill="#0060AF" points="210.261,18.82 210.261,14.019 218.004,14.019 
		218.004,18.82 210.261,18.82 	"/>
	<path fill-rule="evenodd" clip-rule="evenodd" fill="#0060AF" d="M219.968,17.35L224,16.893c0.487,3.223,1.928,4.764,4.52,4.764
		c2.384,0,4.03-1.365,4.03-3.399c0-1.158-0.526-1.96-1.577-2.485c-0.7-0.319-1.12-0.458-3.681-1.228
		c-2.38-0.738-3.75-1.477-4.732-2.528c-1.189-1.328-1.858-3.117-1.858-5.008c0-1.896,0.702-3.717,1.896-4.981
		c1.189-1.296,3.261-2.029,5.676-2.029c4.877,0,7.681,2.729,7.855,7.605l-4.175,0.207c-0.137-1.052-0.351-1.678-0.662-2.204
		c-0.563-0.876-1.722-1.439-3.086-1.439h-0.038c-2.102,0.038-3.468,1.015-3.468,2.454c0.001,1.54,1.015,2.278,4.589,3.292
		c2.491,0.701,3.823,1.301,4.875,2.177c1.646,1.328,2.522,3.468,2.522,6.166c0,2.071-0.77,4.1-2.064,5.54
		c-1.266,1.402-3.475,2.171-6.241,2.171C223.336,25.969,220.528,23.095,219.968,17.35L219.968,17.35z"/>
	<polygon fill-rule="evenodd" clip-rule="evenodd" fill="#0060AF" points="243.771,25.517 243.771,4.656 237.675,4.656 
		237.675,0.419 254.004,0.419 254.004,4.656 247.909,4.656 247.909,25.517 243.771,25.517 	"/>
	<path fill-rule="evenodd" clip-rule="evenodd" fill="#0060AF" d="M269.64,25.517l-3.017-5.47c-0.738-1.333-1.364-2.491-1.614-2.841
		c-1.121-1.821-1.752-2.172-3.925-2.172h-0.839v10.483h-4.137V0.419h8.763c2.416,0,3.818,0.208,4.838,0.732
		c1.959,0.946,3.223,3.405,3.223,6.31c0,3.856-1.964,6.384-5.433,6.978c1.892,1.366,2.666,2.385,4.594,6.166l2.522,4.912H269.64
		L269.64,25.517L269.64,25.517z M260.246,11.04h3.086l1.434-0.037c1.72,0,2.348-0.138,2.979-0.665
		c0.563-0.525,0.914-1.476,0.914-2.559c0-1.158-0.351-2.034-1.051-2.56c-0.595-0.42-1.158-0.563-2.455-0.563h-1.646h-3.261V11.04
		L260.246,11.04z"/>
	<polygon fill-rule="evenodd" clip-rule="evenodd" fill="#0060AF" points="276.759,25.517 292.393,25.517 292.393,21.276 
		280.894,21.276 280.894,14.441 291.236,14.441 291.236,10.235 280.894,10.235 280.894,4.661 292.005,4.661 292.005,0.42 
		276.759,0.42 276.759,25.517 	"/>
	<polygon fill-rule="evenodd" clip-rule="evenodd" fill="#0060AF" points="296.146,25.517 300.316,25.517 300.316,0.42 
		296.146,0.42 296.146,25.517 	"/>
	<polygon fill-rule="evenodd" clip-rule="evenodd" fill="#0060AF" points="308.658,25.517 312.793,25.517 312.793,4.661 
		318.891,4.661 318.891,0.42 302.558,0.42 302.558,4.661 308.658,4.661 308.658,25.517 	"/>
	<path fill="#7D7D7D" d="M129.632,56.022V30.944h14.096v4.246h-9.956v5.931h8.607v4.245h-8.607v10.656H129.632L129.632,56.022z
		 M164.117,56.022h-4.514l-1.798-5.698h-8.209l-1.694,5.698h-4.414l8.006-25.078h4.396L164.117,56.022L164.117,56.022z
		 M156.474,46.102l-2.827-9.307l-2.785,9.307H156.474L156.474,46.102z M166.323,56.022V30.944h8.741
		c2.236,0,3.836,0.228,4.794,0.678c0.957,0.449,1.746,1.232,2.359,2.342c0.619,1.115,0.922,2.446,0.922,3.993
		c0,1.962-0.467,3.545-1.406,4.74c-0.946,1.197-2.283,1.95-4.013,2.255c0.889,0.642,1.624,1.337,2.202,2.095
		c0.583,0.761,1.378,2.12,2.383,4.083l2.492,4.893h-4.939l-3.013-5.461c-1.081-1.967-1.816-3.204-2.208-3.7
		c-0.385-0.496-0.799-0.835-1.231-1.028c-0.433-0.187-1.127-0.28-2.084-0.28h-0.858v10.47H166.323L166.323,56.022z M170.463,41.549
		h3.082c1.88,0,3.079-0.083,3.592-0.246c0.514-0.164,0.928-0.497,1.249-0.998c0.316-0.503,0.479-1.173,0.479-2.003
		c0-0.8-0.162-1.441-0.479-1.928c-0.321-0.483-0.753-0.816-1.302-0.999c-0.385-0.126-1.513-0.185-3.368-0.185h-3.253V41.549
		L170.463,41.549z M195.044,56.022V30.944h15.263v4.246h-11.123v5.557h10.334v4.222h-10.334v6.825h11.497v4.229H195.044
		L195.044,56.022z M232.729,56.022h-4.514l-1.798-5.698h-8.209l-1.694,5.698H212.1l8.006-25.078h4.396L232.729,56.022
		L232.729,56.022z M225.086,46.102l-2.827-9.307l-2.784,9.307H225.086L225.086,46.102z M233.878,47.864l4.053-0.483
		c0.454,3.205,1.95,4.811,4.483,4.811c1.25,0,2.236-0.327,2.954-0.986c0.725-0.653,1.08-1.466,1.08-2.434
		c0-0.572-0.122-1.058-0.373-1.455c-0.25-0.402-0.636-0.73-1.149-0.986c-0.515-0.256-1.753-0.684-3.726-1.291
		c-1.77-0.536-3.066-1.115-3.883-1.745c-0.823-0.625-1.478-1.447-1.962-2.47c-0.483-1.022-0.725-2.12-0.725-3.294
		c0-1.365,0.311-2.598,0.929-3.695c0.624-1.092,1.483-1.922,2.574-2.482c1.1-0.554,2.447-0.834,4.059-0.834
		c2.417,0,4.304,0.653,5.658,1.969c1.359,1.307,2.078,3.187,2.155,5.628l-4.152,0.221c-0.187-1.349-0.578-2.289-1.186-2.825
		c-0.603-0.531-1.465-0.8-2.581-0.8c-1.114,0-1.979,0.233-2.58,0.7c-0.606,0.467-0.911,1.046-0.911,1.746
		c0,0.684,0.274,1.256,0.824,1.723c0.548,0.473,1.809,0.98,3.777,1.541c2.09,0.608,3.596,1.243,4.525,1.909
		c0.928,0.666,1.64,1.53,2.131,2.581c0.491,1.058,0.735,2.336,0.735,3.842c0,2.178-0.671,4.005-2.01,5.488
		c-1.342,1.483-3.438,2.226-6.287,2.226C237.253,56.467,234.445,53.599,233.878,47.864L233.878,47.864z M258.71,56.022V35.19h-6.106
		v-4.246h16.336v4.246h-6.089v20.832H258.71L258.71,56.022z"/>
</g>
</svg>
