<?xml version="1.0" encoding="utf-8"?>
<!-- Generator: Adobe Illustrator 23.0.3, SVG Export Plug-In . SVG Version: 6.00 Build 0)  -->
<svg class="ptw_logo_svg" version="1.1" id="Ebene_1" xmlns="http://www.w3.org/2000/svg" xmlns:xlink="http://www.w3.org/1999/xlink" x="0px" y="0px"
		 viewBox="0 0 609.8 181.9" style="enable-background:new 0 0 609.8 181.9;" xml:space="preserve">
<style type="text/css">
	.ptw_logo_svg .st0{fill:#E3000F;}
	.ptw_logo_svg .st1{fill:#1A1A18;}
</style>
	<g>
	<g>
		<g>
			<path class="st0" d="M144.8,35.3L116.5,0h57L144.8,35.3z"/>
		</g>
		<path d="M0,42.4h40c26.2,0,43.1,13.2,43.1,39.5c0,26-19.6,39.5-44.5,39.5H13.8v60.3H0L0,42.4L0,42.4z M13.8,109.5H29
			c20.8,0,40.3-2.4,40.3-27.5c0-17.6-10-27.6-27.6-27.6h-28L13.8,109.5L13.8,109.5z M149.6,181.8h12.5V54.4h45.1v-12h-57.6V181.8z
			 M352.6,181.8h-16.4L299.8,58h-0.4l-37.1,123.8h-16.6l-36-139.4h14.2l30.4,123.8h0.4l36.9-123.8h16.6l36.3,123.8h0.4l31-123.8H389
			L352.6,181.8z M140.2,42.4H75.1v12H127v127.4h13.2V42.4z"/>
	</g>
		<g>
		<path class="st1" d="M425.8,89.5H419v-3.7h18.4v3.7h-6.8v20h-4.8V89.5z"/>
			<path class="st1" d="M440.3,85.8h4.8v9.6h9.5v-9.6h4.8v23.7h-4.8V99.1h-9.5v10.4h-4.8V85.8z"/>
			<path class="st1" d="M464.9,85.8h14v3.7h-9.3v5.9h8.5v3.7h-8.5v6.7h9.3v3.7h-14.1V85.8z"/>
			<path class="st1" d="M421.4,121.8h6.5c7.3,0,13.7,2.5,13.7,11.9c0,9.4-6.4,11.9-13.7,11.9h-6.5V121.8z M426.2,141.8h2.7
			c4,0,7.8-3,7.8-8.1s-3.8-8.1-7.8-8.1h-2.7V141.8z"/>
			<path class="st1" d="M456.5,121.4c7.5,0,11.6,5,11.6,12.2c0,7.2-4.1,12.3-11.6,12.3c-7.6,0-11.6-5.1-11.6-12.3
			S448.9,121.4,456.5,121.4z M456.5,142.2c4.9,0,6.7-4.3,6.7-8.6c0-4.2-1.9-8.5-6.7-8.5s-6.7,4.3-6.7,8.5
			C449.8,137.8,451.6,142.2,456.5,142.2z"/>
			<path class="st1" d="M485.2,126.1c-1.5-0.6-3.2-1-4.8-1c-1.6,0-3.7,0.7-3.7,3.3c0,4.1,10.4,2.4,10.4,10.3c0,5.2-4.1,7.2-8.9,7.2
			c-2.6,0-3.7-0.3-6.1-0.9l0.4-4.3c1.6,0.9,3.5,1.5,5.4,1.5c1.8,0,4.2-0.9,4.2-3.1c0-4.5-10.4-2.6-10.4-10.5c0-5.3,4.1-7.2,8.3-7.2
			c2,0,3.9,0.3,5.7,0.9L485.2,126.1z"/>
			<path class="st1" d="M490.9,121.8h4.8v23.7h-4.8V121.8z"/>
			<path class="st1" d="M500.8,121.8h7.6l5.6,18h0.1l5.6-18h7.6v23.7h-4.5v-19.6h-0.1l-6.4,19.6h-4.6l-6.4-19.6l-0.1,0.1v19.5h-4.6
			V121.8z"/>
			<path class="st1" d="M532.9,121.8h14v3.7h-9.3v5.9h8.5v3.7h-8.5v6.7h9.3v3.7h-14.1V121.8z"/>
			<path class="st1" d="M556.1,125.5h-6.8v-3.7h18.4v3.7h-6.8v20h-4.8V125.5z"/>
			<path class="st1" d="M570.3,121.8h5.1c5.1,0,11.2-0.2,11.2,6.4c0,2.8-1.9,5.1-4.9,5.5v0.1c1.3,0.1,2,1.4,2.5,2.5l3.8,9.3h-5.3
			l-2.9-7.4c-0.7-1.8-1.3-2.5-3.3-2.5H575v9.9h-4.8L570.3,121.8L570.3,121.8z M575,131.9h1.6c2.3,0,5-0.3,5-3.3c0-2.9-2.7-3.1-5-3.1
			H575V131.9z"/>
			<path class="st1" d="M596.5,136.1l-8.7-14.4h5.6l5.6,10l5.7-10h5l-8.5,14.4v9.4h-4.8L596.5,136.1L596.5,136.1z"/>
			<path class="st1" d="M438.7,181.1c-1.7,0.4-3.6,0.8-5.4,0.8c-7.7,0-13-3.8-13-11.9c0-8.1,5-12.7,13-12.7c1.6,0,3.6,0.3,5.4,1
			l-0.3,4c-1.8-1-3.4-1.3-5.1-1.3c-4.9,0-8,3.7-8,8.6c0,4.8,3,8.5,8.1,8.5c1.9,0,4.1-0.4,5.2-1L438.7,181.1z"/>
			<path class="st1" d="M452.7,157.4c7.5,0,11.6,5,11.6,12.2c0,7.2-4.1,12.3-11.6,12.3c-7.6,0-11.6-5.1-11.6-12.3
			S445.1,157.4,452.7,157.4z M452.7,178.2c4.9,0,6.7-4.3,6.7-8.6c0-4.2-1.9-8.5-6.7-8.5s-6.7,4.3-6.7,8.5
			C446,173.8,447.8,178.2,452.7,178.2z"/>
			<path class="st1" d="M468.7,157.8h7.6l5.6,18h0.1l5.6-18h7.6v23.7h-4.6v-19.6h-0.1l-6.4,19.6h-4.6l-6.4-19.6l-0.1,0.1v19.5h-4.5
			V157.8z"/>
			<path class="st1" d="M500.3,157.8h6c5.2,0,9.9,1.5,9.9,7.2c0,5.5-4,7.5-9.2,7.5h-2v9h-4.8V157.8z M505.1,168.7h1.7
			c2.4,0,4.5-0.8,4.5-3.5s-2.1-3.7-4.5-3.7h-1.7V168.7z"/>
			<path class="st1" d="M523.9,157.8h5.4l9.3,23.7h-5.3l-2-5.4h-9.6l-2.1,5.4h-4.9L523.9,157.8z M526.6,162.5L526.6,162.5l-3.5,9.8
			h6.9L526.6,162.5z"/>
			<path class="st1" d="M541.5,157.8h5.8l9,17.8h0.1v-17.8h4.5v23.7h-5.8l-9.1-17.8H546v17.8h-4.6L541.5,157.8L541.5,157.8z"/>
			<path class="st1" d="M572.5,172.1l-8.7-14.4h5.6l5.6,10l5.7-10h5l-8.5,14.4v9.4h-4.8L572.5,172.1L572.5,172.1z"/>
	</g>
</g>
</svg>
