<?xml version="1.0" standalone="no"?>
<!DOCTYPE svg PUBLIC "-//W3C//DTD SVG 20010904//EN"
 "http://www.w3.org/TR/2001/REC-SVG-20010904/DTD/svg10.dtd">
<svg version="1.0" xmlns="http://www.w3.org/2000/svg"
 width="305.000000pt" height="75.000000pt" viewBox="0 0 305.000000 75.000000"
 preserveAspectRatio="xMidYMid meet">
<metadata>
Created by potrace 1.15, written by Peter Selinger 2001-2017
</metadata>
<g transform="translate(0.000000,75.000000) scale(0.100000,-0.100000)"
fill="#000000" stroke="none">
<path d="M30 385 l0 -225 121 0 c139 0 176 12 210 67 26 42 23 121 -7 155 -33
36 -93 58 -166 58 l-68 0 0 40 0 40 110 0 110 0 0 45 0 45 -155 0 -155 0 0
-225z m238 -47 c7 -7 12 -24 12 -40 0 -40 -35 -60 -102 -56 l-53 3 -3 53 -3
52 68 0 c40 0 74 -5 81 -12z"/>
<path d="M400 385 l0 -225 123 0 c99 0 129 3 156 18 66 36 90 125 51 190 -28
46 -89 72 -172 72 l-68 0 0 40 0 40 110 0 110 0 0 45 0 45 -155 0 -155 0 0
-225z m238 -47 c7 -7 12 -24 12 -40 0 -40 -35 -60 -102 -56 l-53 3 -3 53 -3
52 68 0 c40 0 74 -5 81 -12z"/>
<path d="M770 385 l0 -225 45 0 45 0 0 63 c0 58 3 66 33 95 l33 32 65 -95 64
-94 53 -1 c28 0 52 2 52 5 0 2 -39 61 -86 130 l-86 126 36 42 c20 23 57 66 82
95 l47 52 -55 0 -55 0 -84 -95 c-46 -52 -87 -95 -91 -95 -5 0 -8 43 -8 95 l0
95 -45 0 -45 0 0 -225z"/>
</g>
</svg>
